<?xml version="1.0" encoding="UTF-8" standalone="no"?>
<!-- Created with Inkscape (http://www.inkscape.org/) -->

<svg
   xmlns:dc="http://purl.org/dc/elements/1.1/"
   xmlns:cc="http://creativecommons.org/ns#"
   xmlns:rdf="http://www.w3.org/1999/02/22-rdf-syntax-ns#"
   xmlns:svg="http://www.w3.org/2000/svg"
   xmlns="http://www.w3.org/2000/svg"
   xmlns:sodipodi="http://sodipodi.sourceforge.net/DTD/sodipodi-0.dtd"
   xmlns:inkscape="http://www.inkscape.org/namespaces/inkscape"
   width="2910"
   height="210"
   viewBox="0 0 2910 210.00001"
   id="svg2"
   version="1.1"
   inkscape:version="0.92.1 r15371"
   sodipodi:docname="AGS_logo_concept_1_light_horizontal.svg">
  <defs
     id="defs4" />
  <sodipodi:namedview
     id="base"
     pagecolor="#7c7c7c"
     bordercolor="#666666"
     borderopacity="1.0"
     inkscape:pageopacity="0"
     inkscape:pageshadow="2"
     inkscape:zoom="0.49497476"
     inkscape:cx="1322.8371"
     inkscape:cy="224.05783"
     inkscape:document-units="px"
     inkscape:current-layer="g858"
     showgrid="false"
     showguides="true"
     inkscape:guide-bbox="true"
     inkscape:window-width="1366"
     inkscape:window-height="705"
     inkscape:window-x="-8"
     inkscape:window-y="-8"
     inkscape:window-maximized="1"
     showborder="true"
     units="px"
     inkscape:snap-global="false">
    <sodipodi:guide
       position="1392.8572,134.28572"
       orientation="0,1"
       id="guide830"
       inkscape:locked="false" />
    <sodipodi:guide
       position="1068.5714,25.714287"
       orientation="0,1"
       id="guide832"
       inkscape:locked="false" />
  </sodipodi:namedview>
  <metadata
     id="metadata7">
    <rdf:RDF>
      <cc:Work
         rdf:about="">
        <dc:format>image/svg+xml</dc:format>
        <dc:type
           rdf:resource="http://purl.org/dc/dcmitype/StillImage" />
        <dc:title />
      </cc:Work>
    </rdf:RDF>
  </metadata>
  <g
     inkscape:label="Layer 1"
     inkscape:groupmode="layer"
     id="layer1"
     transform="translate(0,-842.36186)">
    <g
       id="g858"
       transform="translate(-30)">
      <g
         transform="translate(600.56748,100.72987)"
         id="g4152">
        <path
           style="fill:none;fill-opacity:1;fill-rule:evenodd;stroke:#42a5f5;stroke-width:30;stroke-linecap:round;stroke-linejoin:round;stroke-miterlimit:4;stroke-dasharray:none;stroke-opacity:1"
           d="M 239.87952,920.85931 V 773.50547 L 67.749933,923.58809"
           id="path4136"
           inkscape:connector-curvature="0" />
        <path
           style="opacity:1;fill:none;fill-opacity:1;fill-rule:nonzero;stroke:#ffffff;stroke-width:30;stroke-linecap:round;stroke-linejoin:round;stroke-miterlimit:4;stroke-dasharray:none;stroke-opacity:1"
           d="m 373.77095,846.73098 c 53.17237,0 95.979,-2.55 95.979,39 0,28.34106 -2.26668,35.23007 -2.26668,35.23007 0,0 -14.80857,-0.23007 -31.71232,-0.23007 h -42.32773 c -53.17236,0 -95.97899,-33.45 -95.97899,-75 0,-37.3293 34.55164,-68.12064 80.12994,-73.99109 5.15339,-0.66375 68.44774,-1.00891 73.84905,-1.00891"
           id="rect4140"
           inkscape:connector-curvature="0"
           sodipodi:nodetypes="cscssssc" />
        <path
           style="opacity:1;fill:none;fill-opacity:1;fill-rule:nonzero;stroke:#ffffff;stroke-width:30;stroke-linecap:round;stroke-linejoin:round;stroke-miterlimit:4;stroke-dasharray:none;stroke-opacity:1"
           d="m 660.11891,771.58967 c 0,0 -29.10944,-2.05469 -53.90148,-2.05469 h -16.89628 c -45.34872,0 -81.85689,33.40807 -81.85689,74.90599 l 172.286,0.42002 c 0,41.49792 -36.50816,74.90599 -81.85687,74.90599 h -16.89628 c -24.79204,0 -53.90147,-2.05469 -53.90147,-2.05469"
           id="rect4180"
           inkscape:connector-curvature="0"
           sodipodi:nodetypes="cssccssc" />
        <g
           id="g4149"
           transform="translate(-5.3929197,188.36874)">
          <path
             transform="rotate(55.988804)"
             d="m 588.82782,241.13539 a 85,85 0 0 1 46.46467,-58.90812 85,85 0 0 1 75.02281,0.84299"
             sodipodi:open="true"
             sodipodi:end="5.1807148"
             sodipodi:start="3.3523557"
             sodipodi:ry="85"
             sodipodi:rx="85"
             sodipodi:cy="258.91791"
             sodipodi:cx="671.9469"
             sodipodi:type="arc"
             id="path4234"
             style="opacity:1;fill:none;fill-opacity:1;fill-rule:nonzero;stroke:#ffc107;stroke-width:30;stroke-linecap:round;stroke-linejoin:round;stroke-miterlimit:4;stroke-dasharray:none;stroke-opacity:1" />
          <path
             transform="matrix(0.58401692,0.81174149,-0.84498557,0.5347891,0,0)"
             d="m 629.36878,282.20418 a 53.324142,54.61721 0 0 1 29.14928,-37.85173 53.324142,54.61721 0 0 1 47.06502,0.54167"
             sodipodi:open="true"
             sodipodi:end="5.1807148"
             sodipodi:start="3.3523557"
             sodipodi:ry="54.61721"
             sodipodi:rx="53.324142"
             sodipodi:cy="293.63043"
             sodipodi:cx="681.51294"
             sodipodi:type="arc"
             id="path4234-3"
             style="opacity:1;fill:none;fill-opacity:1;fill-rule:nonzero;stroke:#f44336;stroke-width:30.02649879;stroke-linecap:round;stroke-linejoin:round;stroke-miterlimit:4;stroke-dasharray:none;stroke-opacity:1" />
          <path
             d="m 131.83843,708.53709 a 18.521645,18.521645 0 0 1 21.93853,-14.24711 18.521645,18.521645 0 0 1 14.30537,21.90059 18.521645,18.521645 0 0 1 -21.86251,14.36351 18.521645,18.521645 0 0 1 -14.42155,-21.82426"
             sodipodi:open="true"
             sodipodi:end="3.3417296"
             sodipodi:start="3.3523586"
             sodipodi:ry="18.521645"
             sodipodi:rx="18.521645"
             sodipodi:cy="712.41199"
             sodipodi:cx="149.95021"
             sodipodi:type="arc"
             id="path4268"
             style="opacity:1;fill:#4caf50;fill-opacity:1;fill-rule:nonzero;stroke:none;stroke-width:30;stroke-linecap:round;stroke-linejoin:round;stroke-miterlimit:4;stroke-dasharray:none;stroke-opacity:1" />
        </g>
      </g>
      <g
         transform="translate(600.56748,100.72987)"
         style="font-style:normal;font-weight:normal;font-size:142.55226135px;line-height:125%;font-family:sans-serif;letter-spacing:0px;word-spacing:0px;fill:#ffffff;fill-opacity:1;stroke:none;stroke-width:1px;stroke-linecap:butt;stroke-linejoin:miter;stroke-opacity:1"
         id="text4312">
        <path
           d="m 785.73216,919.36183 q 0,4.13402 -2.42339,5.41699 -2.42339,1.28297 -7.12761,1.28297 -4.56167,0 -6.98506,-1.28297 -2.42339,-1.28297 -2.42339,-5.41699 v -91.0909 q 0,-4.13401 2.42339,-5.41698 2.42339,-1.28297 6.98506,-1.28297 4.70422,0 7.12761,1.28297 2.42339,1.28297 2.42339,5.41698 z"
           style="font-style:normal;font-variant:normal;font-weight:normal;font-stretch:normal;font-family:Neuropol;-inkscape-font-specification:Neuropol;fill:#ffffff;fill-opacity:1"
           id="path4145"
           inkscape:connector-curvature="0" />
        <path
           d="m 917.95829,926.06179 q -1.99573,0 -3.2787,-0.14256 -1.28297,-0.14255 -2.42339,-0.71276 -1.14042,-0.57021 -2.42339,-1.42552 -1.28297,-0.99787 -3.13615,-2.56594 l -88.6675,-74.69739 v 72.84421 q 0,4.13402 -2.42339,5.41699 -2.42339,1.28297 -7.12761,1.28297 -4.56168,0 -6.98506,-1.28297 -2.42339,-1.28297 -2.42339,-5.41699 v -91.0909 q 0,-3.99146 2.28083,-5.27443 2.28084,-1.42552 6.69996,-1.42552 4.70422,0 7.41272,1.28297 2.70849,1.14042 5.98719,3.99146 l 87.38454,74.41228 v -72.98676 q 0,-4.13401 2.42339,-5.41698 2.42339,-1.28297 6.98506,-1.28297 4.70422,0 7.12761,1.28297 2.42339,1.28297 2.42339,5.41698 v 91.0909 q 0,4.13402 -2.42339,5.41699 -2.42339,1.28297 -7.41272,1.28297 z"
           style="font-style:normal;font-variant:normal;font-weight:normal;font-stretch:normal;font-family:Neuropol;-inkscape-font-specification:Neuropol;fill:#ffffff;fill-opacity:1"
           id="path4147"
           inkscape:connector-curvature="0" />
        <path
           d="m 1067.509,898.97686 q 0,13.68501 -10.834,20.09987 -10.6914,6.41485 -31.504,6.41485 h -43.19337 q -42.19547,0 -42.19547,-26.51472 v -50.32095 q 0,-26.51472 42.19547,-26.51472 h 20.09987 q 3.4213,0 4.4191,1.99573 1.1404,1.85318 1.1404,5.70209 0,3.84891 -1.1404,5.84464 -0.9978,1.85318 -4.4191,1.85318 h -19.52966 q -12.5446,0 -18.24669,3.2787 -5.70209,3.13615 -5.70209,7.84038 v 50.32095 q 0,4.56167 5.70209,7.84037 5.70209,3.2787 18.24669,3.2787 h 42.05296 q 12.5446,0 18.1041,-3.2787 5.7021,-3.2787 5.7021,-7.84037 v -25.37431 q 0,-4.13401 2.2808,-5.41698 2.4234,-1.28297 7.1276,-1.28297 4.7043,0 7.1276,1.28297 2.566,1.28297 2.566,5.41698 z"
           style="font-style:normal;font-variant:normal;font-weight:normal;font-stretch:normal;font-family:Neuropol;-inkscape-font-specification:Neuropol;fill:#ffffff;fill-opacity:1"
           id="path4149"
           inkscape:connector-curvature="0" />
        <path
           d="m 1096.975,882.29824 v 16.67862 q 0,4.56167 5.7021,7.84037 5.7021,3.2787 18.2467,3.2787 h 68.1399 q 3.4213,0 4.4192,1.99573 1.1404,1.85318 1.1404,5.7021 0,3.70635 -1.1404,5.70209 -0.9979,1.99573 -4.4192,1.99573 h -68.7102 q -42.1954,0 -42.1954,-26.51472 v -50.32095 q 0,-26.51472 42.1954,-26.51472 h 21.2403 q 3.2787,0 4.2766,1.99573 1.1404,1.85318 1.1404,5.70209 0,3.84891 -1.1404,5.84464 -0.9979,1.85318 -4.2766,1.85318 h -20.67 q -12.5446,0 -18.2467,3.2787 -5.7021,3.13615 -5.7021,7.84038 v 18.24669 h 92.5164 q 3.4212,0 4.4191,1.99573 1.1404,1.85318 1.1404,5.70209 0,3.84891 -1.1404,5.84464 -0.9979,1.85318 -4.4191,1.85318 z"
           style="font-style:normal;font-variant:normal;font-weight:normal;font-stretch:normal;font-family:Neuropol;-inkscape-font-specification:Neuropol;fill:#ffffff;fill-opacity:1"
           id="path4151"
           inkscape:connector-curvature="0" />
        <path
           d="m 1325.5687,926.06179 q -1.9958,0 -3.2787,-0.14256 -1.283,-0.14255 -2.4234,-0.71276 -1.1404,-0.57021 -2.4234,-1.42552 -1.283,-0.99787 -3.1362,-2.56594 l -88.6675,-74.69739 v 72.84421 q 0,4.13402 -2.4233,5.41699 -2.4234,1.28297 -7.1277,1.28297 -4.5616,0 -6.985,-1.28297 -2.4234,-1.28297 -2.4234,-5.41699 v -91.0909 q 0,-3.99146 2.2808,-5.27443 2.2809,-1.42552 6.7,-1.42552 4.7042,0 7.4127,1.28297 2.7085,1.14042 5.9872,3.99146 l 87.3845,74.41228 v -72.98676 q 0,-4.13401 2.4234,-5.41698 2.4234,-1.28297 6.9851,-1.28297 4.7042,0 7.1276,1.28297 2.4234,1.28297 2.4234,5.41698 v 91.0909 q 0,4.13402 -2.4234,5.41699 -2.4234,1.28297 -7.4127,1.28297 z"
           style="font-style:normal;font-variant:normal;font-weight:normal;font-stretch:normal;font-family:Neuropol;-inkscape-font-specification:Neuropol;fill:#ffffff;fill-opacity:1"
           id="path4153"
           inkscape:connector-curvature="0" />
        <path
           d="m 1390.3008,925.49158 q -42.1955,0 -42.1955,-26.51472 v -70.70593 q 0,-4.13401 2.4234,-5.41698 2.4234,-1.28297 6.9851,-1.28297 4.7042,0 7.1276,1.28297 2.4234,1.28297 2.4234,5.41698 v 70.70593 q 0,4.56167 5.5595,7.84037 5.7021,3.2787 18.2467,3.2787 h 42.7657 q 12.5446,0 18.1041,-3.2787 5.7021,-3.2787 5.7021,-7.84037 v -70.70593 q 0,-4.13401 2.4234,-5.41698 2.4234,-1.28297 7.1276,-1.28297 4.5617,0 6.9851,1.28297 2.4234,1.28297 2.4234,5.41698 v 70.70593 q 0,26.51472 -42.1955,26.51472 z"
           style="font-style:normal;font-variant:normal;font-weight:normal;font-stretch:normal;font-family:Neuropol;-inkscape-font-specification:Neuropol;fill:#ffffff;fill-opacity:1"
           id="path4155"
           inkscape:connector-curvature="0" />
        <path
           d="m 1508.2383,919.36183 q 0,4.13402 -2.4234,5.41699 -2.4234,1.28297 -7.1276,1.28297 -4.5617,0 -6.9851,-1.28297 -2.4234,-1.28297 -2.4234,-5.41699 v -91.0909 q 0,-4.13401 2.4234,-5.41698 2.4234,-1.28297 6.9851,-1.28297 4.7042,0 7.1276,1.28297 2.4234,1.28297 2.4234,5.41698 z"
           style="font-style:normal;font-variant:normal;font-weight:normal;font-stretch:normal;font-family:Neuropol;-inkscape-font-specification:Neuropol;fill:#ffffff;fill-opacity:1"
           id="path4157"
           inkscape:connector-curvature="0" />
        <path
           d="m 1584.0137,837.53683 v 81.825 q 0,4.13402 -2.4234,5.41699 -2.4234,1.28297 -7.1276,1.28297 -4.5617,0 -6.9851,-1.28297 -2.4233,-1.28297 -2.4233,-5.41699 v -81.825 h -42.9083 q -3.4212,0 -4.5617,-1.85318 -0.9978,-1.99573 -0.9978,-5.84464 0,-3.84891 0.9978,-5.70209 1.1405,-1.99573 4.5617,-1.99573 h 104.9185 q 3.4212,0 4.4191,1.99573 1.1404,1.85318 1.1404,5.70209 0,3.84891 -1.1404,5.84464 -0.9979,1.85318 -4.4191,1.85318 z"
           style="font-style:normal;font-variant:normal;font-weight:normal;font-stretch:normal;font-family:Neuropol;-inkscape-font-specification:Neuropol;fill:#ffffff;fill-opacity:1"
           id="path4159"
           inkscape:connector-curvature="0" />
        <path
           d="m 1641.6649,832.97516 q -2.9936,-2.70849 -2.9936,-5.70209 0,-2.28084 2.4234,-3.99146 2.4234,-1.71063 7.8404,-1.71063 3.1362,0 4.7042,0.71276 1.7107,0.57021 3.2787,1.99573 l 45.7593,44.47631 45.6167,-44.47631 q 1.4256,-1.42552 3.1362,-1.99573 1.7106,-0.71276 4.8468,-0.71276 5.4169,0 7.8403,1.71063 2.4234,1.56807 2.4234,3.99146 0,2.9936 -2.9936,5.70209 l -51.4613,49.75074 v 36.63593 q 0,4.13402 -2.4234,5.41699 -2.4234,1.28297 -7.1276,1.28297 -4.5617,0 -6.9851,-1.28297 -2.4234,-1.28297 -2.4234,-5.41699 V 882.7259 Z"
           style="font-style:normal;font-variant:normal;font-weight:normal;font-stretch:normal;font-family:Neuropol;-inkscape-font-specification:Neuropol;fill:#ffffff;fill-opacity:1"
           id="path4161"
           inkscape:connector-curvature="0" />
      </g>
      <text
         id="text836"
         y="1549.3864"
         x="1519.2584"
         style="font-style:normal;font-weight:normal;font-size:137.91937256px;line-height:1.25;font-family:sans-serif;letter-spacing:0px;word-spacing:0px;fill:#ffffff;fill-opacity:1;stroke:none;stroke-width:3.44798422"
         xml:space="preserve"><tspan
           style="font-style:normal;font-variant:normal;font-weight:bold;font-stretch:normal;font-family:Tangerine;-inkscape-font-specification:'Tangerine Bold';fill:#ffffff;fill-opacity:1;stroke-width:3.44798422"
           y="1549.3864"
           x="1519.2584"
           id="tspan834"
           sodipodi:role="line">Dheyam, Nabha Sparsham!</tspan></text>
    </g>
  </g>
</svg>
