<?xml version="1.0" encoding="UTF-8" standalone="no"?>
<!-- Created with Inkscape (http://www.inkscape.org/) -->

<svg
   xmlns:dc="http://purl.org/dc/elements/1.1/"
   xmlns:cc="http://creativecommons.org/ns#"
   xmlns:rdf="http://www.w3.org/1999/02/22-rdf-syntax-ns#"
   xmlns:svg="http://www.w3.org/2000/svg"
   xmlns="http://www.w3.org/2000/svg"
   xmlns:sodipodi="http://sodipodi.sourceforge.net/DTD/sodipodi-0.dtd"
   xmlns:inkscape="http://www.inkscape.org/namespaces/inkscape"
   width="744.09448"
   height="401.09448"
   viewBox="0 0 744.09449 401.09449"
   id="svg2"
   version="1.1"
   inkscape:version="0.92.1 r15371"
   sodipodi:docname="AGS_logo_concept_1_light.svg">
  <defs
     id="defs4" />
  <sodipodi:namedview
     id="base"
     pagecolor="#7e7e7e"
     bordercolor="#666666"
     borderopacity="1.0"
     inkscape:pageopacity="0"
     inkscape:pageshadow="2"
     inkscape:zoom="0.49497475"
     inkscape:cx="-45.89951"
     inkscape:cy="201.38729"
     inkscape:document-units="px"
     inkscape:current-layer="g4520"
     showgrid="false"
     showguides="true"
     inkscape:guide-bbox="true"
     inkscape:window-width="1366"
     inkscape:window-height="705"
     inkscape:window-x="-8"
     inkscape:window-y="-8"
     inkscape:window-maximized="1"
     showborder="true"
     units="px"
     inkscape:snap-global="false">
    <sodipodi:guide
       position="48.487323,-145.46197"
       orientation="1,0"
       id="guide831"
       inkscape:locked="false" />
    <sodipodi:guide
       position="693.97481,-79.802053"
       orientation="1,0"
       id="guide833"
       inkscape:locked="false" />
  </sodipodi:namedview>
  <metadata
     id="metadata7">
    <rdf:RDF>
      <cc:Work
         rdf:about="">
        <dc:format>image/svg+xml</dc:format>
        <dc:type
           rdf:resource="http://purl.org/dc/dcmitype/StillImage" />
        <dc:title />
      </cc:Work>
    </rdf:RDF>
  </metadata>
  <g
     inkscape:label="Layer 1"
     inkscape:groupmode="layer"
     id="layer1"
     transform="translate(0,-651.26738)">
    <g
       id="g4520"
       transform="translate(0.0812204,-97.964492)">
      <path
         inkscape:connector-curvature="0"
         id="path4136"
         d="M 237.85921,975.40755 V 828.05371 L 65.729628,978.13633"
         style="fill:none;fill-opacity:1;fill-rule:evenodd;stroke:#42a5f5;stroke-width:30;stroke-linecap:round;stroke-linejoin:round;stroke-miterlimit:4;stroke-dasharray:none;stroke-opacity:1" />
      <path
         sodipodi:nodetypes="cscssssc"
         inkscape:connector-curvature="0"
         id="rect4140"
         d="m 371.75064,901.27922 c 53.17237,0 95.979,-2.55 95.979,39 0,28.34106 -2.26668,35.23007 -2.26668,35.23007 0,0 -14.80857,-0.23007 -31.71232,-0.23007 h -42.32773 c -53.17236,0 -95.97899,-33.45 -95.97899,-75 0,-37.3293 34.55164,-68.12064 80.12994,-73.99109 5.15339,-0.66375 68.44774,-1.00891 73.84905,-1.00891"
         style="opacity:1;fill:none;fill-opacity:1;fill-rule:nonzero;stroke:#ffffff;stroke-width:30;stroke-linecap:round;stroke-linejoin:round;stroke-miterlimit:4;stroke-dasharray:none;stroke-opacity:1" />
      <path
         sodipodi:nodetypes="cssccssc"
         inkscape:connector-curvature="0"
         id="rect4180"
         d="m 658.0986,826.13791 c 0,0 -29.10944,-2.05469 -53.90148,-2.05469 h -16.89628 c -45.34872,0 -81.85689,33.40807 -81.85689,74.90599 l 172.286,0.42002 c 0,41.49792 -36.50816,74.90599 -81.85687,74.90599 H 578.9768 c -24.79204,0 -53.90147,-2.05469 -53.90147,-2.05469"
         style="opacity:1;fill:none;fill-opacity:1;fill-rule:nonzero;stroke:#ffffff;stroke-width:30;stroke-linecap:round;stroke-linejoin:round;stroke-miterlimit:4;stroke-dasharray:none;stroke-opacity:1" />
      <path
         transform="rotate(55.988804)"
         d="m 786.04193,383.15724 a 85,85 0 0 1 46.46467,-58.90812 85,85 0 0 1 75.02282,0.84299"
         sodipodi:open="true"
         sodipodi:end="5.1807148"
         sodipodi:start="3.3523557"
         sodipodi:ry="85"
         sodipodi:rx="85"
         sodipodi:cy="400.93976"
         sodipodi:cx="869.16101"
         sodipodi:type="arc"
         id="path4234"
         style="opacity:1;fill:none;fill-opacity:1;fill-rule:nonzero;stroke:#ffc107;stroke-width:30;stroke-linecap:round;stroke-linejoin:round;stroke-miterlimit:4;stroke-dasharray:none;stroke-opacity:1" />
      <path
         transform="matrix(0.58401692,0.81174149,-0.84498557,0.5347891,0,0)"
         d="m 831.02143,430.35081 a 53.324142,54.61721 0 0 1 29.14928,-37.85173 53.324142,54.61721 0 0 1 47.06502,0.54167"
         sodipodi:open="true"
         sodipodi:end="5.1807148"
         sodipodi:start="3.3523557"
         sodipodi:ry="54.61721"
         sodipodi:rx="53.324142"
         sodipodi:cy="441.77707"
         sodipodi:cx="883.16559"
         sodipodi:type="arc"
         id="path4234-3"
         style="opacity:1;fill:none;fill-opacity:1;fill-rule:nonzero;stroke:#f44336;stroke-width:30.02649879;stroke-linecap:round;stroke-linejoin:round;stroke-miterlimit:4;stroke-dasharray:none;stroke-opacity:1" />
      <path
         d="m 124.42521,951.45402 a 18.521645,18.521645 0 0 1 21.93853,-14.24711 18.521645,18.521645 0 0 1 14.30536,21.90059 18.521645,18.521645 0 0 1 -21.8625,14.36351 18.521645,18.521645 0 0 1 -14.42155,-21.82426"
         sodipodi:open="true"
         sodipodi:end="3.3417296"
         sodipodi:start="3.3523586"
         sodipodi:ry="18.521645"
         sodipodi:rx="18.521645"
         sodipodi:cy="955.32892"
         sodipodi:cx="142.53699"
         sodipodi:type="arc"
         id="path4268"
         style="opacity:1;fill:#4caf50;fill-opacity:1;fill-rule:nonzero;stroke:none;stroke-width:30;stroke-linecap:round;stroke-linejoin:round;stroke-miterlimit:4;stroke-dasharray:none;stroke-opacity:1" />
      <g
         id="text4312"
         style="font-style:normal;font-weight:normal;font-size:91.5344162px;line-height:125%;font-family:sans-serif;letter-spacing:0px;word-spacing:0px;fill:#ffffff;fill-opacity:1;stroke:none;stroke-width:1px;stroke-linecap:butt;stroke-linejoin:miter;stroke-opacity:1"
         transform="translate(-2.0203051,54.548238)">
        <path
           id="path4142"
           style="font-style:normal;font-variant:normal;font-weight:normal;font-stretch:normal;font-family:Neuropol;-inkscape-font-specification:Neuropol;fill:#ffffff;fill-opacity:1"
           d="m 61.518298,1025.7922 q 0,2.6545 -1.556085,3.4783 -1.556085,0.8238 -4.576721,0.8238 -2.929101,0 -4.485187,-0.8238 -1.556085,-0.8238 -1.556085,-3.4783 v -58.49052 q 0,-2.6545 1.556085,-3.47831 1.556086,-0.82381 4.485187,-0.82381 3.020636,0 4.576721,0.82381 1.556085,0.82381 1.556085,3.47831 z"
           inkscape:connector-curvature="0" />
        <path
           id="path4144"
           style="font-style:normal;font-variant:normal;font-weight:normal;font-stretch:normal;font-family:Neuropol;-inkscape-font-specification:Neuropol;fill:#ffffff;fill-opacity:1"
           d="m 146.42219,1030.0943 q -1.28148,0 -2.10529,-0.091 -0.82381,-0.092 -1.55609,-0.4577 -0.73227,-0.3662 -1.55608,-0.9154 -0.82381,-0.6407 -2.01376,-1.6476 L 82.256564,979.01858 v 46.77412 q 0,2.6545 -1.556085,3.4783 -1.556085,0.8238 -4.576721,0.8238 -2.929101,0 -4.485187,-0.8238 -1.556085,-0.8238 -1.556085,-3.4783 v -58.49052 q 0,-2.56297 1.464551,-3.38678 1.464551,-0.91534 4.302118,-0.91534 3.020635,0 4.759789,0.82381 1.739154,0.73228 3.844446,2.56296 l 56.1106,47.78097 v -46.86562 q 0,-2.6545 1.55608,-3.47831 1.55609,-0.82381 4.48519,-0.82381 3.02063,0 4.57672,0.82381 1.55608,0.82381 1.55608,3.47831 v 58.49052 q 0,2.6545 -1.55608,3.4783 -1.55609,0.8238 -4.75979,0.8238 z"
           inkscape:connector-curvature="0" />
        <path
           id="path4146"
           style="font-style:normal;font-variant:normal;font-weight:normal;font-stretch:normal;font-family:Neuropol;-inkscape-font-specification:Neuropol;fill:#ffffff;fill-opacity:1"
           d="m 242.45037,1012.7027 q 0,8.7874 -6.95662,12.9064 -6.86508,4.119 -20.2291,4.119 h -27.73493 q -27.09419,0 -27.09419,-17.0254 v -32.3116 q 0,-17.0254 27.09419,-17.0254 h 12.90635 q 2.19683,0 2.83757,1.28148 0.73228,1.18995 0.73228,3.66138 0,2.47143 -0.73228,3.75291 -0.64074,1.18994 -2.83757,1.18994 h -12.54021 q -8.05503,0 -11.71641,2.1053 -3.66137,2.01375 -3.66137,5.03439 v 32.3116 q 0,2.9291 3.66137,5.0344 3.66138,2.1053 11.71641,2.1053 h 27.00265 q 8.05503,0 11.62487,-2.1053 3.66138,-2.1053 3.66138,-5.0344 v -16.29308 q 0,-2.6545 1.46455,-3.47831 1.55608,-0.82381 4.57672,-0.82381 3.02064,0 4.57672,0.82381 1.64762,0.82381 1.64762,3.47831 z"
           inkscape:connector-curvature="0" />
        <path
           id="path4148"
           style="font-style:normal;font-variant:normal;font-weight:normal;font-stretch:normal;font-family:Neuropol;-inkscape-font-specification:Neuropol;fill:#ffffff;fill-opacity:1"
           d="m 261.37082,1001.9932 v 10.7095 q 0,2.9291 3.66138,5.0344 3.66137,2.1053 11.7164,2.1053 h 43.75345 q 2.19683,0 2.83757,1.2815 0.73228,1.19 0.73228,3.6614 0,2.3799 -0.73228,3.6614 -0.64074,1.2814 -2.83757,1.2814 h -44.11958 q -27.09419,0 -27.09419,-17.0254 v -32.3116 q 0,-17.0254 27.09419,-17.0254 h 13.63862 q 2.1053,0 2.74604,1.28148 0.73227,1.18995 0.73227,3.66138 0,2.47143 -0.73227,3.75291 -0.64074,1.18994 -2.74604,1.18994 H 276.7486 q -8.05503,0 -11.7164,2.1053 -3.66138,2.01375 -3.66138,5.03439 v 11.7164 h 59.40584 q 2.19682,0 2.83756,1.28149 0.73228,1.18994 0.73228,3.66137 0,2.47143 -0.73228,3.75294 -0.64074,1.1899 -2.83756,1.1899 z"
           inkscape:connector-curvature="0" />
        <path
           id="path4150"
           style="font-style:normal;font-variant:normal;font-weight:normal;font-stretch:normal;font-family:Neuropol;-inkscape-font-specification:Neuropol;fill:#ffffff;fill-opacity:1"
           d="m 408.15341,1030.0943 q -1.28149,0 -2.1053,-0.091 -0.82381,-0.092 -1.55608,-0.4577 -0.73228,-0.3662 -1.55609,-0.9154 -0.82381,-0.6407 -2.01375,-1.6476 l -56.93441,-47.96402 v 46.77412 q 0,2.6545 -1.55608,3.4783 -1.55609,0.8238 -4.57673,0.8238 -2.9291,0 -4.48518,-0.8238 -1.55609,-0.8238 -1.55609,-3.4783 v -58.49052 q 0,-2.56297 1.46455,-3.38678 1.46455,-0.91534 4.30212,-0.91534 3.02064,0 4.75979,0.82381 1.73915,0.73228 3.84445,2.56296 l 56.11059,47.78097 v -46.86562 q 0,-2.6545 1.55609,-3.47831 1.55608,-0.82381 4.48518,-0.82381 3.02064,0 4.57673,0.82381 1.55608,0.82381 1.55608,3.47831 v 58.49052 q 0,2.6545 -1.55608,3.4783 -1.55609,0.8238 -4.75979,0.8238 z"
           inkscape:connector-curvature="0" />
        <path
           id="path4152"
           style="font-style:normal;font-variant:normal;font-weight:normal;font-stretch:normal;font-family:Neuropol;-inkscape-font-specification:Neuropol;fill:#ffffff;fill-opacity:1"
           d="m 449.7186,1029.7281 q -27.09419,0 -27.09419,-17.0254 v -45.40102 q 0,-2.6545 1.55609,-3.47831 1.55608,-0.82381 4.48519,-0.82381 3.02063,0 4.57672,0.82381 1.55608,0.82381 1.55608,3.47831 v 45.40102 q 0,2.9291 3.56984,5.0344 3.66138,2.1053 11.71641,2.1053 h 27.46032 q 8.05503,0 11.62488,-2.1053 3.66137,-2.1053 3.66137,-5.0344 v -45.40102 q 0,-2.6545 1.55609,-3.47831 1.55608,-0.82381 4.57672,-0.82381 2.9291,0 4.48518,0.82381 1.55609,0.82381 1.55609,3.47831 v 45.40102 q 0,17.0254 -27.09419,17.0254 z"
           inkscape:connector-curvature="0" />
        <path
           id="path4154"
           style="font-style:normal;font-variant:normal;font-weight:normal;font-stretch:normal;font-family:Neuropol;-inkscape-font-specification:Neuropol;fill:#ffffff;fill-opacity:1"
           d="m 525.44762,1025.7922 q 0,2.6545 -1.55609,3.4783 -1.55608,0.8238 -4.57672,0.8238 -2.9291,0 -4.48518,-0.8238 -1.55609,-0.8238 -1.55609,-3.4783 v -58.49052 q 0,-2.6545 1.55609,-3.47831 1.55608,-0.82381 4.48518,-0.82381 3.02064,0 4.57672,0.82381 1.55609,0.82381 1.55609,3.47831 z"
           inkscape:connector-curvature="0" />
        <path
           id="path4156"
           style="font-style:normal;font-variant:normal;font-weight:normal;font-stretch:normal;font-family:Neuropol;-inkscape-font-specification:Neuropol;fill:#ffffff;fill-opacity:1"
           d="m 574.10387,973.25141 v 52.54079 q 0,2.6545 -1.55609,3.4783 -1.55608,0.8238 -4.57672,0.8238 -2.9291,0 -4.48519,-0.8238 -1.55608,-0.8238 -1.55608,-3.4783 v -52.54079 h -27.55186 q -2.19683,0 -2.9291,-1.18994 -0.64074,-1.28148 -0.64074,-3.75291 0,-2.47143 0.64074,-3.66138 0.73227,-1.28148 2.9291,-1.28148 h 67.36933 q 2.19683,0 2.83757,1.28148 0.73227,1.18995 0.73227,3.66138 0,2.47143 -0.73227,3.75291 -0.64074,1.18994 -2.83757,1.18994 z"
           inkscape:connector-curvature="0" />
        <path
           id="path4158"
           style="font-style:normal;font-variant:normal;font-weight:normal;font-stretch:normal;font-family:Neuropol;-inkscape-font-specification:Neuropol;fill:#ffffff;fill-opacity:1"
           d="m 611.12239,970.32231 q -1.92222,-1.73915 -1.92222,-3.66137 0,-1.46455 1.55608,-2.56297 1.55609,-1.09841 5.03439,-1.09841 2.01376,0 3.02064,0.45767 1.09841,0.36614 2.10529,1.28148 l 29.38255,28.55874 29.29101,-28.55874 q 0.91535,-0.91534 2.01376,-1.28148 1.09841,-0.45767 3.11217,-0.45767 3.47831,0 5.03439,1.09841 1.55609,1.00688 1.55609,2.56297 0,1.92222 -1.92223,3.66137 l -33.04392,31.94549 v 23.5244 q 0,2.6545 -1.55609,3.4783 -1.55608,0.8238 -4.57672,0.8238 -2.9291,0 -4.48518,-0.8238 -1.55609,-0.8238 -1.55609,-3.4783 v -23.5244 z"
           inkscape:connector-curvature="0" />
      </g>
      <text
         id="text837"
         y="1347.9675"
         x="61.977322"
         style="font-style:normal;font-weight:normal;font-size:79.37400818px;line-height:1.25;font-family:sans-serif;letter-spacing:0px;word-spacing:0px;fill:#ffffff;fill-opacity:1;stroke:none;stroke-width:1.9843502"
         xml:space="preserve"><tspan
           style="font-style:normal;font-variant:normal;font-weight:bold;font-stretch:normal;font-family:Tangerine;-inkscape-font-specification:'Tangerine Bold';fill:#ffffff;fill-opacity:1;stroke-width:1.9843502"
           y="1347.9675"
           x="61.977322"
           id="tspan835"
           sodipodi:role="line">Dheyam, Nabha Sparsham!</tspan></text>
    </g>
  </g>
</svg>
